<svg width="60" height="65" viewBox="0 0 60 65" fill="none" xmlns="http://www.w3.org/2000/svg">
<path d="M32.8114 1.67042C32.8114 1.67042 34.353 0.876603 34.3556 0.875032C35.9788 0.0341213 37.9291 0.298378 39.4974 1.11469C39.5376 1.13615 39.5758 1.13248 39.6114 1.1037C41.1237 -0.101408 43.1963 -0.195075 44.9987 0.231397C47.9181 0.922125 50.5776 2.71907 52.0145 5.39252C52.0313 5.42443 52.0714 5.4375 52.1044 5.4213C52.2514 5.35012 52.3963 5.28103 52.5384 5.21457C54.8028 4.1607 57.0805 5.73629 58.2869 7.58245C60.1762 10.4741 60.7447 14.6441 58.7485 17.6592C58.7363 17.677 58.7343 17.7 58.743 17.7199C60.0183 20.677 60.1098 24.0186 59.2944 27.1097C58.8153 28.9312 57.6866 31.152 55.644 31.5581C55.6311 31.5606 55.6223 31.5737 55.6248 31.5868C55.6252 31.59 55.6269 31.5926 55.6286 31.5952C57.3512 34.0635 57.5964 37.1723 56.4803 39.9457C56.4719 39.9666 56.4761 39.9844 56.4928 39.9991C56.9143 40.3669 57.2706 40.796 57.5613 41.2869C58.0851 42.1708 58.2013 42.9014 58.0705 43.9431C57.9114 45.2121 57.5367 46.5095 56.832 47.5697C56.0726 48.7121 55.0693 49.8817 53.9059 50.6766C53.6227 50.87 53.2886 51.0989 53.1507 51.3024C52.9172 51.6486 53.6791 51.8587 53.845 52.1006C54.8074 53.5012 54.4101 55.4527 53.6048 56.8274C52.3713 58.9356 50.0843 60.2698 47.5893 59.9373C47.5684 59.9343 47.5542 59.9427 47.5471 59.9623C47.0505 61.2551 46.0258 62.2635 44.8826 63.0049C43.5989 63.8374 42.1558 64.4373 40.6339 64.6469C40.1268 64.7171 39.5492 64.7338 39.0719 64.5175C38.8898 64.4347 38.769 64.3454 38.7088 64.2489C38.5649 64.0166 38.4471 63.7547 38.187 63.6294C37.3163 63.2109 36.3964 63.03 35.4268 63.0876C35.1949 63.1014 32.3577 62.8224 32.3577 62.8224C32.3577 62.8057 30.2421 62.4193 29.1113 62.0133C28.1977 61.6841 27.3149 61.3341 26.4112 60.9109C24.9973 60.2501 23.9183 59.7677 22.7477 59.0037C20.9591 57.8366 19.1575 56.5333 17.5536 55.0726C17.5343 55.0555 17.5254 55.0601 17.5259 55.0856C17.5426 55.9314 17.4981 56.6846 17.3919 57.3437C17.1036 59.1382 16.3569 60.9502 15.3872 62.54C14.9487 63.2597 14.3961 63.8508 13.7295 64.3124C13.6683 64.3545 13.6505 64.3412 13.6761 64.271C14.0372 63.2902 14.2298 62.2668 14.2544 61.1996C14.2831 59.9243 13.9555 58.7388 13.2716 57.6424C13.1413 57.4331 13.0309 57.3491 12.7682 57.3383C11.4783 57.2861 10.2659 57.0605 9.07125 56.568C7.75103 56.0246 6.47058 55.0534 5.87297 53.7184C5.18433 52.1821 5.48525 50.4744 6.4852 49.134C6.49723 49.1177 6.49464 49.0956 6.47998 49.0822C5.39786 48.1503 4.54281 47.19 3.53863 45.9753C2.06926 44.1996 1.05201 42.1917 0.486867 39.952C-0.816101 34.7893 0.38535 28.4131 5.44022 25.611C5.45801 25.6011 5.46323 25.5864 5.45542 25.5676C4.97501 24.4608 4.84369 23.2939 5.06031 22.0673C5.35024 20.4279 6.01845 18.9392 6.91014 17.5703C8.12359 15.7058 9.59873 14.0905 11.335 12.7247C11.3727 12.6949 11.3988 12.6525 11.4077 12.6049C11.7656 10.7127 13.168 9.09523 14.607 7.84928C16.4401 6.26169 18.8273 4.99899 21.3092 5.00003C21.3437 5.00003 21.3866 4.98015 21.4374 4.94039C24.4572 2.60394 28.4666 0.852008 32.3321 1.93258C32.3483 1.93729 32.8124 1.6678 32.8124 1.6678L32.8114 1.67042ZM49.7531 18.4886C51.5764 19.364 50.5659 21.7832 49.7217 22.9402C49.7113 22.9538 49.7142 22.9737 49.728 22.9836C49.7305 22.9857 49.733 22.9867 49.7359 22.9878C52.0112 23.8334 53.0613 26.5576 51.8529 28.7015C51.6562 29.051 51.3437 29.399 51.5588 29.8281C51.8044 30.3168 52.2121 30.5173 52.7819 30.4293C54.0847 30.2284 55.0651 29.0536 55.6419 27.9417C56.2059 26.8554 56.5985 25.8611 56.7343 24.6262C56.9916 22.2766 56.5404 19.824 55.2735 17.8052C55.0175 17.396 54.8341 17.0821 54.9824 16.6608C55.1344 16.2244 55.4473 16.1093 55.8191 15.9596C55.9005 15.9266 55.974 15.8769 56.035 15.8131C56.3128 15.5232 56.6286 15.2485 56.7869 14.8623C57.1699 13.9298 57.0597 12.7901 56.8003 11.8367C56.5187 10.8032 56.0471 9.86653 55.3842 9.02614C54.6946 8.15229 53.0776 7.97225 52.2785 8.7776C52.0918 8.96649 51.8821 9.21193 51.6503 9.51436C51.4832 9.73311 51.2664 9.88904 51.0008 9.98115C50.7096 10.0821 50.4928 10.0366 50.2059 9.94293C49.6591 9.76557 49.2773 9.42175 49.3354 8.80479C49.3788 8.34589 49.4907 7.91365 49.6729 7.50864C49.733 7.37468 49.7389 7.27998 49.68 7.15438C48.8755 5.44953 47.0567 4.26169 45.271 3.73999C44.3684 3.47625 43.4427 3.42078 42.4937 3.57358C42.4632 3.57829 42.4427 3.60707 42.4481 3.6369C42.4498 3.64475 42.4523 3.6526 42.4569 3.6594C42.7752 4.12564 43.015 4.63429 43.1758 5.18633C43.3408 5.7525 43.2522 6.60492 42.743 6.96966C42.3019 7.28466 41.7501 7.17062 41.4188 6.75772C41.2587 6.55734 41.0635 6.22556 40.8903 6.0058C40.1661 5.08951 39.2399 4.45425 38.1112 4.1C37.3629 3.86453 36.4718 3.79493 35.7538 4.1403C35.1363 4.4375 34.5597 5.22556 34.3765 5.88859C34.3404 6.01887 34.3232 6.19469 34.3237 6.41499C34.3294 7.94665 34.3294 9.47355 34.3232 10.9963C34.3232 11.0177 34.3331 11.0324 34.353 11.0398C34.9448 11.2558 35.3792 11.6357 35.8475 12.0428C36.1865 12.337 36.4906 12.665 36.7596 13.0266C36.9082 13.226 37.231 13.2443 37.467 13.2422C38.9003 13.2286 40.7794 12.7833 41.7777 11.6661C41.931 11.495 42.0451 11.3867 42.1198 11.3422C42.5709 11.0701 42.9139 11.2192 43.365 11.4861C44.5058 12.1627 45.8295 12.3757 47.1144 12.6373C47.1365 12.642 47.1591 12.6274 47.1641 12.6049V12.6038C47.2577 12.0973 47.563 11.5421 48.1148 11.4311C48.5526 11.3427 49.0217 11.586 49.1795 12.0047C49.279 12.2684 49.2372 12.5834 49.1424 12.8492C49.1315 12.8801 49.1403 12.9146 49.1645 12.9361C49.4615 13.2004 49.5563 13.5342 49.4473 13.9377C49.3972 14.1265 49.3257 14.2527 49.2326 14.3165C48.7719 14.6321 48.3015 14.9654 47.9536 15.4081C47.0505 16.5567 47.7614 17.9093 49.0158 18.2903C49.1958 18.3447 49.5384 18.3855 49.7522 18.4881L49.7531 18.4886ZM19.4443 14.5551C18.9366 12.8194 20.9376 10.8273 22.1517 9.88745C24.4196 8.1324 26.9742 7.02564 29.8167 6.56779C30.5592 6.44794 31.3928 6.42388 32.3174 6.49452C32.3394 6.49611 32.3525 6.48616 32.3556 6.46469C32.4069 6.14552 32.4147 5.82472 32.3797 5.50342C32.3734 5.44327 32.3415 5.40141 32.285 5.37785C29.1966 4.12303 25.599 5.04034 22.947 6.84042C20.1805 8.71845 17.7991 12.102 18.3679 15.6278C18.3699 15.6383 18.3799 15.6451 18.3904 15.6435C18.394 15.643 18.3977 15.6409 18.4003 15.6383L19.4306 14.6101C19.4458 14.5944 19.4505 14.576 19.4443 14.5546V14.5551ZM19.3746 6.80429C17.2014 7.66198 15.2559 9.19046 13.8205 11.0031C13.786 11.0465 13.7928 11.0539 13.8404 11.0261C14.8859 10.4118 15.9968 9.92463 17.1727 9.56619C17.2093 9.55467 17.2407 9.54159 17.2663 9.52693C17.3082 9.50287 17.3344 9.48194 17.3453 9.46415C17.9492 8.50705 18.6331 7.63161 19.3971 6.83834C19.4411 6.79226 19.4338 6.78128 19.3741 6.80484L19.3746 6.80429ZM22.1967 12.8011C24.2893 11.8655 26.5043 11.2527 28.7675 10.9021C29.6744 10.7619 30.5838 10.6457 31.4969 10.5541C31.7675 10.5274 32.0375 10.5112 32.307 10.506C32.3629 10.505 32.4074 10.4589 32.4064 10.4029L32.3771 8.47618C32.3771 8.45525 32.3661 8.44427 32.3457 8.44322C29.5482 8.25642 26.7277 9.17998 24.3798 10.6776C23.4186 11.2909 22.5803 12.0314 21.8654 12.8995C21.833 12.9392 21.8409 12.9497 21.8885 12.9309C21.9848 12.8932 22.0873 12.8503 22.1962 12.8011H22.1967ZM16.0032 31.6109C16.3265 33.277 15.8524 34.8694 15.1334 36.3738C15.1209 36.4 15.1272 36.4057 15.1528 36.3916C15.7938 36.0357 16.4757 35.8291 17.1941 35.6862C17.6054 35.6045 17.912 35.5784 18.3532 35.6627C18.4474 35.6804 18.653 35.7045 18.9691 35.7349C19.7111 35.805 20.4531 35.8761 21.1951 35.9478C22.1051 36.0368 22.8728 35.9698 23.8241 35.884C24.4462 35.828 25.0512 35.6904 25.6634 35.5622C26.2259 35.445 26.6911 35.3005 27.1631 35.0666C27.89 34.7056 28.6131 34.2854 29.3316 33.8055C29.5158 33.682 29.6607 33.5962 29.7675 33.5476C30.5937 33.1671 31.4948 32.8977 32.3457 32.905C32.3567 32.905 32.3656 32.8961 32.3656 32.8851V13.35C32.3656 13.3113 32.341 13.2768 32.3043 13.2642C31.8083 13.0957 31.297 13.0015 30.7711 12.9811C29.3782 12.9272 28.0082 13.0606 26.6613 13.3819C24.6085 13.8717 22.8021 15.0737 21.0517 16.2009C20.1695 16.7691 19.4448 17.3039 18.8765 17.8052C17.4584 19.059 16.3815 20.6084 15.6458 22.454C15.2386 23.4755 14.966 24.6131 15.0126 25.7345C15.0199 25.9077 15.0592 26.3059 15.1303 26.9286C15.225 27.7564 15.3197 28.5335 15.5207 29.3749C15.6976 30.1164 15.8587 30.8616 16.0042 31.6099L16.0032 31.6109ZM41.1666 41.0283C42.3617 40.8211 43.2481 41.2335 43.771 42.3642C43.779 42.3805 43.7961 42.3901 43.8132 42.3863C44.578 42.2539 45.2447 42.1892 46.0162 42.3128C46.0446 42.317 46.0534 42.3065 46.0421 42.2806C45.0204 39.8928 47.1069 37.6841 49.4231 37.5266C49.459 37.524 49.4874 37.4946 49.4887 37.458C49.515 36.7788 49.3759 35.8683 48.9139 35.356C48.6323 35.0446 48.3654 34.7134 48.4431 34.2749C48.4628 34.165 48.5693 33.9395 48.7627 33.5983C49.1357 32.9395 50.01 31.2713 49.7267 30.5298C49.4356 29.7669 49.4569 29.0238 49.7915 28.3012C49.8876 28.0929 50.0613 27.8951 50.1716 27.69C50.7927 26.5356 50.0379 24.8679 48.6683 24.7774C48.4715 24.7643 48.2856 24.7564 48.1085 24.6911C47.2836 24.387 46.9068 23.4038 47.4051 22.6487C47.5872 22.3734 47.8813 22.1531 48.0722 21.8973C48.4239 21.4279 48.6679 20.9015 48.804 20.318C48.8136 20.274 48.7873 20.2301 48.743 20.2201C46.1582 19.6362 44.6683 16.8796 46.21 14.4981C46.2213 14.4803 46.2163 14.4562 46.1979 14.4452C46.1942 14.4426 46.1896 14.441 46.1854 14.44C45.0425 14.2202 43.8963 13.9654 42.8479 13.4385C42.8299 13.429 42.8132 13.4306 42.7978 13.4432C41.3377 14.5824 39.4864 15.1522 37.6481 15.1972C37.186 15.2082 36.5126 15.1742 36.1478 14.8801C35.5335 14.3845 34.9359 13.8738 34.3551 13.3479C34.3483 13.3411 34.3373 13.3416 34.3305 13.3484C34.3274 13.3516 34.3258 13.3563 34.3258 13.361V38.6454C34.3253 38.6568 34.3347 38.6663 34.3462 38.6663C34.3509 38.6663 34.3551 38.6647 34.3587 38.6621C35.6256 37.7008 37.3184 37.9174 38.1824 39.2869C38.1933 39.3047 38.2096 39.3151 38.231 39.3183C38.3676 39.3382 38.5377 39.3334 38.6428 39.3465C39.7433 39.4889 40.568 40.0415 41.1179 41.0037C41.1289 41.0226 41.1451 41.0299 41.1666 41.0268V41.0283ZM12.2753 47.2042C12.3365 48.0342 12.4412 48.9431 12.6583 49.7217C13.0215 51.0246 13.6499 52.195 14.5443 53.2334C14.8566 53.596 15.1643 53.9548 15.4673 54.3107C15.5139 54.3658 15.5369 54.3566 15.5359 54.2848C15.5243 53.6039 15.4255 52.9352 15.37 52.256C15.2522 50.8149 14.9974 49.3675 14.7917 47.9373C14.786 47.8963 14.7656 47.8596 14.7342 47.8341C14.1994 47.3876 13.7316 46.8755 13.3308 46.2969C12.381 44.9227 11.5841 43.4674 10.9404 41.9298C10.9352 41.9172 10.9205 41.911 10.908 41.9164C10.9033 41.9185 10.8991 41.9222 10.8965 41.9268C10.3643 42.8199 9.88077 44.2155 10.1513 45.2535C10.1848 45.3838 10.1456 45.4055 10.0336 45.3203C9.99903 45.294 9.94777 45.2301 9.87868 45.1294C8.81172 43.5605 9.51398 41.3088 10.5071 39.908C10.898 39.3565 11.2947 38.8081 11.6966 38.2644C12.0393 37.8002 12.3166 37.3398 12.6034 36.8578C13.4616 35.4162 14.4093 33.7668 14.0754 32.0039C13.8959 31.0567 13.6913 30.1154 13.4611 29.1802C13.4302 29.0541 13.4066 28.927 13.3904 28.7977C13.3156 28.2059 13.2408 27.6141 13.1654 27.0223C13.055 26.1494 12.9734 25.3645 13.0722 24.6356C13.3962 22.2546 14.3852 20.0925 15.8352 18.1971C15.854 18.1726 15.8587 18.1401 15.8477 18.1108C15.3982 16.9585 15.2585 15.767 15.4275 14.5368C15.4291 14.5258 15.4218 14.5154 15.4103 14.5133C15.4056 14.5127 15.4014 14.5133 15.3972 14.5154C13.572 15.5405 11.9441 16.8162 10.5145 18.3426C9.19631 19.7502 7.89652 21.756 7.95617 23.7664C7.97656 24.4346 8.10216 25.2944 8.3842 25.9574C8.47681 26.1751 8.64009 26.4655 8.58879 26.6921C8.48361 27.1614 8.23244 27.5063 7.83474 27.7261C7.60137 27.8553 7.2398 27.9956 6.98545 28.1442C4.46014 29.6214 3.31414 32.5921 3.20007 35.3942C3.06297 38.7683 4.20893 42.091 6.46845 44.6006C6.50509 44.642 6.51557 44.6365 6.49987 44.5835C5.69924 41.9331 5.2916 39.1372 5.536 36.3696C5.71445 34.3566 6.43917 31.5821 8.78662 31.0897C8.807 31.0855 8.81799 31.0724 8.81904 31.052C8.87973 29.9202 9.47943 28.803 10.2021 27.9652C10.2528 27.9061 10.2727 27.915 10.2607 27.9924C10.2183 28.2813 10.1994 28.5241 10.1618 28.8799C10.0477 29.9542 10.2172 30.9223 10.5636 31.9364C10.751 32.4832 10.4653 32.9793 9.88654 33.0708C9.63641 33.1106 9.35905 33.0259 9.18482 33.029C8.25287 33.0452 7.74372 34.8317 7.61812 35.5281C7.48992 36.243 7.42501 36.9635 7.42292 37.6898C7.41402 40.6349 7.99644 43.4532 9.17071 46.1449C9.27376 46.3813 9.44017 46.6532 9.67146 46.9603C9.98699 47.3805 9.95458 47.8562 9.79234 48.3408C9.67931 48.6783 9.56419 49.0145 9.44802 49.3504C9.07125 50.436 8.95145 51.5505 9.088 52.6942C9.12359 52.9895 9.17488 53.2201 9.44752 53.3742C10.0639 53.7226 10.728 53.9607 11.4396 54.0885C11.4647 54.0927 11.4736 54.0826 11.4653 54.0584C11.3093 53.5755 11.2094 53.076 11.1665 52.5592C11.1026 51.7948 11.1189 50.9193 11.2156 49.9331C11.3151 48.921 11.6421 48.0045 12.1984 47.1846C12.2439 47.1173 12.2695 47.124 12.2758 47.205L12.2753 47.2042ZM53.7618 43.4757C53.3224 43.6545 52.7785 43.5108 52.5705 43.0639C52.312 42.5083 52.7347 41.3852 53.0363 40.8965C53.4306 40.2575 53.7059 39.6819 53.847 38.9342C54.1729 37.2079 54.007 35.535 53.3487 33.9154C53.0258 33.1205 52.4444 32.3592 51.5354 32.2524C51.5166 32.2503 51.5041 32.2582 51.4978 32.2765C51.261 32.9609 50.9728 33.6224 50.6323 34.2613C50.6177 34.2891 50.6186 34.3215 50.6353 34.3477C51.1883 35.2357 51.4569 36.21 51.4406 37.2691C51.4323 37.8086 51.3445 38.2712 51.1766 38.6568C50.9515 39.1749 50.5321 39.4522 49.9202 39.4883C49.7907 39.4962 49.6616 39.5009 49.5317 39.5035C48.6858 39.5202 47.6582 40.2267 47.7481 41.177C47.7501 41.1963 47.7585 41.2126 47.7735 41.2256C47.8696 41.3068 47.9887 41.3816 48.0638 41.4627C48.8592 42.3174 48.2138 43.8404 47.6449 44.6336C47.6349 44.6474 47.6369 44.6662 47.6491 44.6779C48.6486 45.6223 48.624 46.997 48.0793 48.1783C47.6486 49.1115 47.0033 49.8462 46.1428 50.3826C45.378 50.8587 44.7376 50.8863 43.8876 50.8383C43.276 50.8032 43.0735 50.4331 42.8742 49.9314C42.8258 49.8111 42.7021 49.6294 42.502 49.3871C41.2571 47.8801 39.467 46.8684 37.5743 46.4339C36.4435 46.1737 35.388 46.4034 34.3593 46.8943C34.3383 46.9039 34.3253 46.9247 34.3253 46.9477V60.3011C34.3253 60.3136 34.3357 60.3245 34.3483 60.3245C34.3504 60.3245 34.3525 60.3245 34.3545 60.3232C36.2954 59.8111 38.3948 60.2263 40.0703 61.286C40.3105 61.4377 40.6956 61.3274 41.007 61.251C42.7034 60.8353 44.4506 59.6156 45.3266 58.0718C45.4836 57.7948 45.5968 57.6177 45.6662 57.5404C46.0488 57.1156 46.7481 56.8253 47.2957 56.8654C48.0734 56.9226 48.7856 56.8099 49.4318 56.5275C50.411 56.0993 51.4114 55.2581 51.8312 54.2506C51.8395 54.2301 51.8341 54.2146 51.8149 54.2029C51.2827 53.8963 50.8963 53.4582 50.6557 52.888C49.997 51.3282 50.0822 49.4277 51.492 48.2777C52.2831 47.6328 52.9795 46.9832 53.581 46.3295C54.4874 45.3454 55.053 44.0196 54.7731 42.6908C54.7714 42.6808 54.7618 42.6745 54.7514 42.6766C54.7472 42.6771 54.7435 42.6791 54.7409 42.6825C54.4757 42.9953 54.1482 43.3187 53.761 43.4761L53.7618 43.4757ZM25.6854 58.3997C27.4876 59.2693 29.1207 59.9836 31.0678 60.5822C31.5053 60.7167 31.8998 60.7865 32.3342 60.8236C32.3499 60.8249 32.364 60.8132 32.365 60.7973C32.365 60.7965 32.365 60.7957 32.365 60.7948V34.9133C32.365 34.8893 32.3462 34.8699 32.3227 34.8694C31.8025 34.8583 31.0427 35.0729 30.5759 35.3529C30.4294 35.4413 30.2525 35.5564 30.0448 35.6987C29.8052 35.8625 29.1882 36.2157 28.194 36.7568C27.1265 37.3382 25.7937 37.5339 24.5478 37.7845C24.4028 37.8139 24.2987 37.8306 24.2343 37.8353C23.3552 37.8997 22.4332 37.9839 21.5787 37.94C21.2375 37.9222 20.8539 37.8913 20.428 37.8474C19.721 37.7741 18.8744 37.7223 18.101 37.6129C17.5322 37.5323 16.9644 37.7448 16.439 37.9389C16.1156 38.0577 15.8148 38.3104 15.5458 38.5182C15.5092 38.547 15.4903 38.5925 15.4966 38.638C16.1031 43.0705 16.7075 47.4903 17.3092 51.8959C17.3291 52.0438 17.3616 52.1206 17.4589 52.2221C19.4688 54.3149 21.8058 56.0939 24.2563 57.6211C24.6854 57.888 25.1616 58.1474 25.6848 58.4001L25.6854 58.3997ZM12.4145 40.0451C12.7468 41.4831 13.4611 42.8483 14.2413 44.0885C14.2632 44.1236 14.2716 44.1202 14.2659 44.0797L13.5322 38.7385C13.5306 38.727 13.5202 38.7186 13.5087 38.7202C13.5034 38.7207 13.4987 38.7233 13.4956 38.727C13.1649 39.0917 12.8237 39.4512 12.4731 39.8055C12.4009 39.8782 12.392 39.9515 12.4145 40.0451Z" fill="#FEFEFE" fill-opacity="0.937255"/>
<path d="M45.8396 7.91365C45.7306 8.47568 46.4114 8.88959 46.8108 8.47201C47.0104 8.26269 47.1541 8.08633 47.4085 7.98328C48.1854 7.66929 48.939 8.41077 48.68 9.1847C48.6098 9.39352 48.4653 9.60855 48.246 9.8299C46.8525 11.2365 44.5046 10.6373 43.9519 8.7436C43.7548 8.06804 43.8375 7.39561 44.2001 6.72531C44.4436 6.27631 44.9177 5.91737 45.4352 6.03354C45.9616 6.15125 46.2656 6.63057 46.1671 7.16745C46.1165 7.44586 45.891 7.64573 45.8396 7.9142V7.91365Z" fill="#FEFEFE" fill-opacity="0.937255"/>
<path d="M37.8286 11.1433C36.7904 11.2402 35.8302 10.764 35.2243 9.90997C34.9218 9.48403 34.7538 8.98742 35.0557 8.52589C35.4116 7.9822 36.243 7.95396 36.6115 8.46152C36.7433 8.64205 36.8773 8.86866 37.0432 8.99318C37.4921 9.33173 38.096 9.22188 38.3869 8.73575C38.6161 8.35321 38.4937 8.05755 38.376 7.6918C38.0379 6.64577 39.2619 5.95137 40.0007 6.7347C40.1577 6.90162 40.2692 7.0916 40.3346 7.30404C40.9008 9.14548 39.7721 10.9628 37.8291 11.1428L37.8286 11.1433Z" fill="#FEFEFE" fill-opacity="0.937255"/>
<path d="M51.9556 14.5039C51.9999 14.8094 52.2568 15.0517 52.5772 15.0036C52.936 14.9497 53.2113 14.5321 53.5793 14.4159C54.1628 14.2317 54.7927 14.62 54.827 15.2558C54.8508 15.6953 54.5559 16.0889 54.2234 16.35C53.0208 17.2966 51.2497 17.1867 50.3905 15.8356C49.7234 14.7859 49.8767 13.4055 50.5818 12.406C51.1904 11.5431 52.5212 12.0047 52.3591 13.0774C52.2785 13.6132 51.8671 13.8927 51.9552 14.5033L51.9556 14.5039Z" fill="#FEFEFE" fill-opacity="0.937255"/>
<path d="M12.9268 19.857C12.1507 21.2102 11.6065 22.5315 11.3747 24.0809C11.3041 24.556 11.3098 25.0123 11.3271 25.4906C11.3329 25.6597 11.325 25.7889 11.303 25.8784C11.0906 26.7533 9.97283 26.9202 9.54167 26.1222C9.05554 25.2232 9.42496 23.5137 9.74313 22.6257C10.0827 21.6785 10.7363 20.7743 11.4448 20.0323C12.0822 19.3636 12.73 18.9501 13.6081 18.7853C13.6463 18.778 13.6531 18.7895 13.629 18.8204C13.37 19.1469 13.1361 19.4928 12.9268 19.8575V19.857Z" fill="#FEFEFE" fill-opacity="0.937255"/>
<path d="M53.4076 21.7403C53.4164 21.7455 53.4298 21.7403 53.4481 21.7251C53.548 21.6409 53.6495 21.5577 53.7522 21.4765C54.7142 20.7173 55.7794 21.8695 55.1056 22.8596C54.3533 23.9668 52.7627 24.0401 51.898 23.0338C51.2598 22.2913 51.2201 21.2955 51.7919 20.4922C52.2957 19.7848 53.507 20.0187 53.5709 20.9506C53.5872 21.194 53.4945 21.4556 53.3888 21.6811C53.3788 21.7031 53.3867 21.7288 53.4076 21.7408V21.7403Z" fill="#FEFEFE" fill-opacity="0.937255"/>
<path d="M37.8621 27.0882C38.2608 26.6795 38.646 26.3687 39.0175 26.1552C40.5339 25.2823 42.1332 24.7774 43.8145 24.6403C44.3099 24.6 44.8395 24.657 45.4022 24.8125C46.5521 25.1295 47.182 26.0626 47.3257 27.2064C47.3759 27.6104 47.6486 30.152 47.0985 30.2404C47.0797 30.2436 47.0617 30.2305 47.0588 30.2117C47.0588 30.2106 47.0588 30.2101 47.0588 30.209C46.9435 29.1499 46.6181 28.0698 46.0162 27.1981C45.8203 26.914 45.6532 26.7156 45.5154 26.6026C44.4197 25.7036 41.7176 26.8077 40.6098 27.3425C39.637 27.8124 38.7543 28.5099 38.2153 29.4613C38.1201 29.6287 38.0766 29.7506 38.0845 29.8265C38.1023 29.9924 38.142 30.1734 38.1185 30.3278C38.0201 30.962 37.2624 31.4068 36.7051 30.9647C36.4084 30.7292 36.3671 30.3508 36.3645 29.9626C36.3556 28.8317 36.421 27.6821 36.4476 26.5874C36.4628 25.9673 36.4743 25.3467 36.4817 24.7261C36.4832 24.5906 36.4937 24.4556 36.5131 24.3211C36.5675 23.9443 36.9097 23.7089 37.2619 23.9402C37.4696 24.0767 37.6062 24.5293 37.657 24.7721C37.8166 25.5367 37.8312 26.2985 37.8302 27.0762C37.8302 27.106 37.8406 27.1102 37.8621 27.0887V27.0882Z" fill="#FEFEFE" fill-opacity="0.937255"/>
<path d="M28.6598 26.9668C29.2966 27.1573 29.8937 27.4043 30.3625 27.8668C30.5446 28.0468 30.8622 28.4618 30.6467 28.7151C30.5975 28.7731 30.5185 28.8077 30.4102 28.8197C29.2924 28.9427 28.1799 28.7355 27.0685 28.7046C24.8205 28.6418 22.5207 28.7564 20.169 29.0489C19.5348 29.1279 19.1821 28.4979 19.6813 28.0374C19.7876 27.9395 19.8588 27.8689 19.8964 27.8244C20.6531 26.9134 21.7106 26.5817 22.8404 26.4121C24.7943 26.1191 26.766 26.4011 28.6608 26.9668H28.6598Z" fill="#FEFEFE" fill-opacity="0.937255"/>
<path d="M51.0016 46.0187C49.0405 46.1804 47.9273 43.8187 49.2577 42.4131C49.7656 41.8755 50.4645 41.6244 51.0547 42.2113C51.3742 42.53 51.3333 43.1532 51.0346 43.469C50.9252 43.5839 50.8145 43.6883 50.7013 43.7806C50.6533 43.8207 50.6412 43.8892 50.6729 43.9423C50.7523 44.0768 51.053 43.972 51.1821 43.9494C52.2268 43.7627 52.8283 44.9461 51.9945 45.647C51.7372 45.8617 51.4068 45.9866 51.0016 46.0196V46.0187Z" fill="#FEFEFE" fill-opacity="0.937255"/>
<path d="M36.8998 50.1465C36.365 50.7084 36.7601 51.639 37.5382 51.6361C37.9055 51.6353 38.2033 51.3792 38.5664 51.3291C38.9118 51.2806 39.1975 51.3938 39.4241 51.6687C39.8008 52.1265 39.6391 52.7343 39.2048 53.081C38.4937 53.6499 37.4728 53.7522 36.6559 53.4861C35.3702 53.0663 34.5581 51.7664 34.6994 50.4297C34.8093 49.3905 35.5455 48.4176 36.5523 48.0734C37.2383 47.8387 37.9118 48.2443 37.9165 48.9874C37.9186 49.2418 37.8254 49.4586 37.6371 49.6378C37.4372 49.8295 37.1065 49.9293 36.9003 50.147L36.8998 50.1465Z" fill="#FEFEFE" fill-opacity="0.937255"/>
<path d="M48.7981 54.3709C48.0082 55.4866 46.5437 55.9811 45.2213 55.5617C44.4189 55.3069 43.7986 54.7977 43.36 54.0338C42.9727 53.3596 42.6787 52.2677 43.5107 51.8216C44.0149 51.5513 44.6532 51.8575 44.8441 52.3692C44.913 52.5534 44.9556 52.8433 45.0471 53.0358C45.6666 54.345 47.766 53.639 47.4109 52.1846C47.3508 51.9394 47.1528 51.6595 47.1031 51.3951C46.9669 50.6658 47.6227 50.0225 48.3554 50.2986C48.6457 50.4089 48.8708 50.6252 49.03 50.9485C49.5813 52.0726 49.517 53.355 48.7981 54.3709Z" fill="#FEFEFE" fill-opacity="0.937255"/>
<path d="M40.0342 58.6996C38.6522 58.8834 37.3906 57.9398 37.0771 56.5998C36.95 56.0538 36.9788 55.4757 37.2064 54.9732C37.6114 54.0789 38.9431 54.1449 39.0933 55.1862C39.1258 55.4101 39.0274 55.6833 38.9997 55.8897C38.873 56.8529 40.2665 57.0822 40.4549 56.1595C40.4947 55.9644 40.4921 55.6683 40.5653 55.4653C40.7882 54.8516 41.5627 54.6382 42.068 55.0659C42.3988 55.3454 42.4903 55.8015 42.4527 56.2201C42.3341 57.5367 41.3461 58.5246 40.0342 58.6996Z" fill="#FEFEFE" fill-opacity="0.937255"/>
</svg>
